#!OML:ASF F:\VICON\USERDATA\INSTALL\rory3\rory3.ASF
:FULLY-SPECIFIED
:DEGREES
84
root 1.3091804911230231 17.92660956909305 53.71781578196199 -3.088842303405496 -0.5395817097948912 2.5769011139653735
lfemur 6.908483753136618 -5.3379954458726 -27.863537267827592
ltibia 21.033462339420005
lfoot -3.809809532065011 -6.284770220797191
ltoes -6.1739620048819095
rfemur -24.9162307414231 -0.19170616822080566 19.057462033848115
rtibia 48.15639567402328
rfoot -8.290862991490114 -1.42177922561756
rtoes 2.8320186877667832
lowerback -1.0 -1.4532508025733395 -2.3859717168246943
upperback -0.022408035755334593 -2.132579252833194 0.9975373780563959
thorax -5.049285386501956 -1.1007794364642343 2.543618165673236
lowerneck -16.519331132465048 -2.816217228549804 -1.643648957131918
upperneck 21.769442007585965 -3.542521109865054 1.1037992471839406
head 9.717710889079365 -1.7318213742004975 0.3394991031478647
lclavicle 4.274012142101864e-16 -7.875245185659253e-16
lhumerus -26.454152025096995 0.9388966339357863 80.06748180330524
lradius 27.24816803557936
lwrist 6.2880670340019105
lhand -28.294245851651635 20.30363939361564
lfingers nan
lthumb -1.8363177131945416 50.208319765460125
rclavicle 3.2702267509986294e-16 -8.622955868481218e-16
rhumerus -30.85696730835395 -19.127590675528424 -80.74007884824145
rradius 31.56173712875545
rwrist 0.62411789043143
rhand -17.97629746085224 -1.0
rfingers nan
rthumb 8.485149453627026 -8.178949593495947
85
root 1.3458021960794597 17.92132808524814 53.788999200223365 -3.1736699100652808 -0.994256990350191 2.9971364352489998
lfemur 8.600726106248722 -5.407162630758811 -28.103923594864433
ltibia 21.781581269775312
lfoot -3.306797499071098 -6.2846233594472825
ltoes -4.904659467537463
rfemur -25.130143878525814 -0.18992852318117226 18.94800456852805
rtibia 43.87852961707762
rfoot -8.89876208824091 -1.3452512398351661
rtoes 1.9636099331663859
lowerback -1.0 -1.5822525823985512 -2.7526768007871065
upperback -0.005823031617387536 -2.3750960721215635 1.047047939504608
thorax -4.933577348747122 -1.215593049646214 2.815455471238879
lowerneck -16.467683350018945 -2.729219618960333 -1.8174671196349823
upperneck 22.007364432845176 -3.378826549521041 0.9121869911716425
head 9.768346283795816 -1.6717051496308089 0.32644972307634984
lclavicle 4.2370637484594256e-16 -7.887151339980254e-16
lhumerus -26.212667655500884 0.7999293062546666 80.01977719194163
lradius 27.11942377594443
lwrist 6.343697609261352
lhand -28.202358639462446 20.505006835952983
lfingers nan
lthumb -1.7748898083132694 50.33360338888964
rclavicle 3.225738663851593e-16 -8.644177780014707e-16
rhumerus -31.374281746892816 -19.614826914711372 -80.3504381908158
rradius 31.816002117122913
rwrist 0.8052538282904655
rhand -17.968918461844943 -1.0
rfingers nan
rthumb 8.48128078473045 -8.203828496208988
86
root 1.3742831209456003 17.92049865963053 54.07990932217947 -2.9676925358451984 -1.3516193853818135 2.3888168310912823
lfemur 9.337647348248161 -5.269013147996526 -27.315159130895076
ltibia 23.450858870105304
lfoot -3.1829295772353587 -6.1316807941898634
ltoes -4.817985562086157
rfemur -25.178859743195666 0.07265360154271772 19.92943635684235
rtibia 39.65452712056963
rfoot -9.552074955461785 -1.9219807093495138
rtoes 1.0874799596728377
lowerback -1.0 -1.7320675248512467 -2.403140089062765
upperback -0.013564485510049296 -2.5262641655478455 1.2295010226598497
thorax -4.891012477547761 -1.2865870442232348 2.9614333128125656
lowerneck -16.40396601217582 -2.6644394880478948 -1.966099113739367
upperneck 22.216026024384124 -3.2536716690734626 0.7007679366375478
head 9.814397938117287 -1.6288681468041981 0.2846935209794584
lclavicle 4.207840285312712e-16 -7.898448330742933e-16
lhumerus -26.136807134633344 0.6542010772858164 80.01262060615726
lradius 26.80761787135844
lwrist 6.372020051155873
lhand -28.139093968728243 20.499661001977618
lfingers nan
lthumb -1.6880397982795368 50.39896753648024
rclavicle 3.1899312571719187e-16 -8.662700509588007e-16
rhumerus -31.76961580846799 -20.147014383267027 -79.88429832860473
rradius 32.089381489890556
rwrist 1.1001949528629713
rhand -18.01931355921928 -1.0
rfingers nan
rthumb 8.49199682731281 -8.192886981759308
87
root 1.3846911917600255 17.913298038483223 53.775933346523665 -3.028464342535406 -1.8532284204894975 2.0896908676736627
lfemur 9.656747454966968 -4.8734268429616066 -26.64862908697682
ltibia 25.786035601041657
lfoot -3.336111240199675 -5.763884089335637
ltoes -3.7987724591161913
rfemur -24.760800842145162 0.4414727312251787 20.651803188191767
rtibia 35.66284600498547
rfoot -10.060816335514257 -3.3287359357283792
rtoes 0.3200657917995442
lowerback -1.0 -1.7723215826972343 -2.2952695663737193
upperback -0.015268461445000159 -2.592621637136881 1.3418203621002112
thorax -4.869022595686442 -1.3091838317193696 3.066426237727954
lowerneck -16.363861066988807 -2.6297038747286376 -2.0606013806962684
upperneck 22.345509961396004 -3.1812929312276053 0.5015954185134066
head 9.843065635367415 -1.6078379127728233 0.22236057053795427
lclavicle 4.1797604482959713e-16 -7.913911222671052e-16
lhumerus -26.24176145879803 0.5183569917738096 80.02981174939563
lradius 26.295893008345836
lwrist 6.49052947572791
lhand -28.106400795114297 20.470617813784898
lfingers nan
lthumb -1.6762789690353026 50.342983418259905
rclavicle 3.163667585795424e-16 -8.677956097466673e-16
rhumerus -32.06254693117632 -20.739530189698968 -79.38913703650539
rradius 32.344756933099006
rwrist 1.4572152444602344
rhand -18.037553352382332 -1.0
rfingers nan
rthumb 8.507222297280073 -8.176631878077352
88
root 1.3820753058790025 17.90115512294869 53.30423341030537 -3.1062364146932144 -2.3131970445513965 1.2845361269576225
lfemur 9.20482046404285 -4.302000600946478 -25.34684880323604
ltibia 28.978426851519348
lfoot -3.066858648741637 -5.0777084289586085
ltoes -4.090799863024827
rfemur -24.099697994895187 0.9030354139846852 21.773712261570942
rtibia 32.20511801850088
rfoot -10.310971186835243 -5.195206533435771
rtoes -0.007545747854301066
lowerback -1.0 -1.7422451812209028 -1.7953623030938877
upperback -0.004799268877703988 -2.5032384214734056 1.4969346511175554
thorax -4.867419115301542 -1.2659835283678549 3.0683285386540637
lowerneck -16.35173636146227 -2.6222053661780014 -2.087090846650466
upperneck 22.374721311022224 -3.1562080860521524 0.34331362405342264
head 9.846506346921563 -1.6044513156473004 0.15803982201869088
lclavicle 4.1595529987520745e-16 -7.92572619755603e-16
lhumerus -26.395827542188425 0.5125376344376162 80.08857548927875
lradius 25.61608411466027
lwrist 6.690626030741669
lhand -28.11162818247871 20.36425769971663
lfingers nan
lthumb -1.6493955194043355 50.32367115448235
rclavicle 3.1466316687706513e-16 -8.68821329810552e-16
rhumerus -32.223775964760286 -21.34155211907924 -78.88061618241657
rradius 32.561016489429385
rwrist 1.8060294950274218
rhand -18.09238447811266 -1.0
rfingers nan
rthumb 8.495670656963332 -8.21781540241432
